<?xml version="1.0" encoding="UTF-8" standalone="no"?>
<svg
   xmlns:dc="http://purl.org/dc/elements/1.1/"
   xmlns:cc="http://creativecommons.org/ns#"
   xmlns:rdf="http://www.w3.org/1999/02/22-rdf-syntax-ns#"
   xmlns:svg="http://www.w3.org/2000/svg"
   xmlns="http://www.w3.org/2000/svg"
   xmlns:sodipodi="http://sodipodi.sourceforge.net/DTD/sodipodi-0.dtd"
   xmlns:inkscape="http://www.inkscape.org/namespaces/inkscape"
   version="1.0"
   width="553.81036pt"
   height="761.14105pt"
   viewBox="0 0 553.81037 761.14105"
   preserveAspectRatio="xMidYMid meet"
   id="svg10"
   sodipodi:docname="logo_black_nobackground.svg"
   inkscape:version="1.0 (4035a4fb49, 2020-05-01)">
  <defs
     id="defs14">
    <inkscape:path-effect
       effect="bspline"
       id="path-effect2401"
       is_visible="true"
       lpeversion="1"
       weight="33.333333"
       steps="2"
       helper_size="0"
       apply_no_weight="true"
       apply_with_weight="true"
       only_selected="false" />
    <inkscape:path-effect
       effect="spiro"
       id="path-effect2590"
       is_visible="true"
       lpeversion="1" />
  </defs>
  <sodipodi:namedview
     inkscape:document-rotation="0"
     pagecolor="#ffffff"
     bordercolor="#666666"
     borderopacity="1"
     objecttolerance="10"
     gridtolerance="10"
     guidetolerance="10"
     inkscape:pageopacity="0"
     inkscape:pageshadow="2"
     inkscape:window-width="1920"
     inkscape:window-height="1017"
     id="namedview12"
     showgrid="false"
     inkscape:zoom="0.41940789"
     inkscape:cx="308.56338"
     inkscape:cy="546.69732"
     inkscape:window-x="-8"
     inkscape:window-y="-8"
     inkscape:window-maximized="1"
     inkscape:current-layer="g8" />
  <metadata
     id="metadata2">
Created by potrace 1.16, written by Peter Selinger 2001-2019
<rdf:RDF>
  <cc:Work
     rdf:about="">
    <dc:format>image/svg+xml</dc:format>
    <dc:type
       rdf:resource="http://purl.org/dc/dcmitype/StillImage" />
  </cc:Work>
</rdf:RDF>
</metadata>
  <g
     transform="matrix(0.1,0,0,-0.1,0.66124769,760.57856)"
     fill="#000000"
     stroke="none"
     id="g8">
    <path
       d="m 2011,7580 c -71,-26 -141,-37 -291,-49 -131,-11 -202,-29 -260,-67 -51,-34 -64,-46 -85,-78 -12,-18 -46,-41 -91,-62 -131,-62 -219,-182 -244,-331 -10,-60 -19,-81 -51,-122 -58,-73 -71,-119 -63,-222 5,-75 4,-92 -15,-134 -27,-61 -27,-113 0,-176 20,-45 21,-61 16,-157 -8,-132 4,-166 92,-249 34,-31 61,-65 61,-74 0,-26 -65,-51 -160,-61 -153,-16 -147,-14 -226,-89 -40,-38 -81,-69 -91,-69 -19,0 -95,-73 -130,-125 -11,-16 -37,-75 -57,-130 -48,-131 -57,-147 -137,-232 -38,-40 -80,-95 -94,-122 -26,-52 -44,-149 -45,-237 0,-70 -30,-163 -90,-279 -72,-140 -69,-204 17,-346 41,-67 57,-106 68,-174 10,-63 38,-115 91,-175 27,-30 58,-71 68,-90 43.85785,-73.7773 157.01237,-185.2754 223,-83 21,32 9,72 -73,234 -74,145 -108,261 -99,329 10,71 61,192 117,277 61,95 227,262 323,325 84,56 227,127 311,156 125,43 228,56 429,56 173,0 200,-2 295,-26 162,-41 202,-63 312,-175 111,-114 152,-175 169,-249 10,-46 10,-56 -5,-78 -22,-34 -91,-53 -235,-65 -100,-8 -123,-14 -187,-46 -40,-19 -79,-41 -86,-48 -37,-34 -115,-80 -175,-104 -133,-52 -443,-41 -612,21 -81,30 -183,80 -221,108 -42,30 -54,17 -46,-53 16,-135 110,-460 194,-671 44,-108 217,-451 296,-587 56,-96 65,-116 54,-130 -7,-9 -13,-17 -14,-19 0,-1 -21,5 -45,14 -25,9 -97,19 -170,24 -115,7 -133,11 -207,44 -147,67 -242,68 -349,4 -30,-18 -71,-43 -91,-55 -30,-19 -52,-23 -119,-23 -72,0 -85,-3 -103,-22 -40,-43 -21,-102 92,-282 163,-259 313,-432 541,-623 15,-13 27,-26 27,-30 0,-5 -21,-80 -45,-168 -89,-314 -142,-651 -131,-837 8,-131 29,-247 62,-338 13,-37 13.88921,-57.1879 13.88921,-59.1879 0,-3 -6.18501,-25.00594 -28.18501,-31.00594 -30,-10 -47.5181,-15.75967 -79.5181,-4.75967 -20.17299,6.99879 -57.45755,27.96395 -92.60413,24.41697 -50.22414,-5.0686 -113.15367,-32.02751 -103.93068,-39.33355 0,0 48.71147,14.80436 102.71147,15.80436 28,1 64.6408,-31.41712 79.6408,-39.41712 35,-18 81.28298,-19.01127 128.28298,0.98873 C 781.28654,492.50588 785,481 796,465 818.6166,365.25859 679.72087,355.53278 593.49212,407.96737 c -47.58914,14.57635 -68.97039,-4.82236 -96.04126,18.57653 -38.48424,33.26411 -85.79038,23.40816 -102.41667,20.91525 -54.96385,-14.74703 -70.79742,-22.78132 -67.22562,-26.16005 3.26919,-3.09249 21.38258,-1.63498 40.67145,3.16647 25.18462,3.98648 54.02432,5.46181 68.47898,0.47418 24.01128,-8.28518 36.13994,-22.50244 52.59044,-36.45574 15.16346,-12.86163 31.89515,-14.5296 49.92743,-16.64572 8.53038,-1.00105 17.35183,-2.1024 26.43599,-4.53649 25.33074,-9.13384 66.12165,-39.17009 101.12165,-50.17009 76,-24 131.8113,-8.27054 161.8113,12.72946 C 849.84581,344.86117 861,309 880,278 c 11,-18 20,-42 20,-54 0,-37 30,-109 60,-146 41,-50 103,-78 171,-78 61,0 174,24 204,44 12,7 30,10 45,5 51,-15 103,-9 137,13 60,42 33,98 -48,98 -32,0 -68,-12 -135,-46 -77,-38 -104,-46 -167,-51 -63,-5 -82,-2 -119,15 -24,12 -51,35 -61,51 -20,35 -23,58 -4,44 25,-21 129,-53 170,-53 24,0 102,21 186,50 80,28 159,50 177,50 28,0 34,-5 48,-40 9,-22 16,-49 16,-60 0,-27 19,-25 29,2 2.889,22.42044 40.4516,-6.12113 50.1612,-14.54935 22,-20.000001 54.9671,-27.161184 115.9671,-28.161184 54,-1 79.9059,-25.207025 113.9059,-42.207025 114.1845,-32.101029 191.167,39.061354 281.8009,-23.348354 C 2135.5862,131.56126 1995.8355,43.957683 1915.573,87.194788 1881.0937,113.58032 1855.8652,135.97394 1803,140 c -20.9394,1.59468 -34.2249,12.61063 -41.2249,16.61063 C 1743.7751,167.61063 1719,210 1726,232 c 6,19 6,19 27,0 34,-32 73,-43 130,-36 47,5 51.7044,-11.19478 78.7044,-37.19478 71.7512,-69.857371 126.6085,-17.34745 196.4,-22.12375 32.6295,-2.7525 69.9537,-25.89379 67.3676,-18.61076 -15,27 -37.4185,48.16474 -88.3746,50.28149 -25.1558,1.04499 -67.4625,-23.44252 -109.3776,7.63628 -46.371,57.22105 -79.3785,73.4308 -154.3785,89.4308 C 1804.3413,280.41928 1819,307 1918,374 c 37,25 76,53 87,63 11,10 34,29 50,41 17,13 62,55 102,93 40,38 89.0468,74.28013 81,69 -3.3443,-2.19445 21,14 38,31 16,17 65,55 110,85 178,120 382,297 459,399 l 27,35 48,-63 c 54,-70 242,-266 340,-352 132,-117 347,-269 490,-347 131,-71 302,-133 563,-202 176,-47 203,-28 122,83 -31,43 -31,73 0,163 41,119 37,140 -60,281 l -60,89 2,115 c 3,140 -7,170 -95,260 -35,36 -73,89 -91,127 -37,74 -104,141 -178,176 -85,41 -355,142 -460,173 -57,17 -103,34 -103,40 0,5 20,36 45,69 86,114 195,340 260,538 33,101 35,104 150,205 235,207 361,353 569,658 154,227 160,255 65,307 -25,14 -73,43 -105,64 -57,38 -63,40 -165,46 -93,6 -113,10 -155,36 -73,43 -170,73 -241,74 -70,0 -76,5 -88,78 l -7,42 130,139 c 260,277 381,476 436,720 14,62 15,83 6,123 -18,72 -39,84 -162,91 -57,3 -142,15 -189,27 -105,27 -138,20 -236,-47 -107,-73 -120,-76 -215,-58 -63,12 -90,13 -115,4 -18,-6 -39,-9 -47,-7 -7,2 -62,68 -121,148 -179,239 -240,308 -399,448 -27,24 -69,57 -93,74 -27,20 -68,68 -107,127 -72,108 -163,207 -280,302 -169,137 -355,300 -401,351 -111,122 -200,286 -247,450 -27,96 -32,130 -32,228 -1,153 6,180 57,230 52,49 105,70 269,104 70,15 150,34 177,42 63,18 129,68 153,116 18,34 18,39 3,68 -35,67 -177,91 -294,50 z m 220,-51 c 30,-15 23,-53 -15,-87 -42,-37 -63,-44 -251,-82 -82,-17 -169,-40 -193,-50 -38,-17 -41,-17 -33,-2 17,31 135,138 186,168 85,49 172,75 234,69 29,-3 62,-10 72,-16 z m -441,-82 c -91,-83 -137,-150 -171,-247 -30,-86 -33,-105 -33,-210 1,-200 61,-397 178,-574 35,-52 58,-92 52,-89 -19,12 -127,130 -168,185 -62,82 -165,302 -194,414 -32,120 -42,279 -24,383 12,71 13,74 58,102 25,15 60,33 79,40 37,12 143,26 213,27 l 45,2 z m -430,-253 c 0,-214 86,-475 225,-685 48,-71 202,-234 305,-321 67,-57 252,-196 409,-307 50,-36 101,-76 113,-90 l 23,-25 -30,21 c -16,11 -148,89 -293,172 -278,161 -501,305 -542,351 -3,3 -18,16 -35,29 -117,89 -288,288 -347,404 -32,63 -78,236 -78,289 1,79 71,171 170,223 36,18 68,34 73,34 4,1 7,-42 7,-95 z m -270,-356 c 67,-227 317,-502 655,-723 114,-74 149,-95 435,-255 138,-78 400,-250 379,-250 -2,0 -29,10 -59,21 -34,13 -89,23 -143,27 -86,5 -92,7 -195,64 -59,33 -156,85 -217,115 -223,112 -469,259 -547,325 -14,13 -60,51 -101,85 -41,35 -99,93 -130,130 -66,81 -157,222 -157,243 0,8 -7,28 -15,44 -28,53 -16,107 42,184 13,17 28,32 32,32 4,0 14,-19 21,-42 z m 44,-511 c 150,-176 398,-345 811,-555 77,-39 164,-84 194,-100 l 55,-30 -36,-7 c -30,-6 -52,1 -133,39 -53,25 -98,46 -100,46 -3,0 -34,14 -70,30 -36,17 -67,30 -70,30 -2,0 -82,37 -177,81 -257,121 -328,164 -467,287 -90,79 -106,98 -153,176 -47,77 -52,112 -23,175 l 18,41 47,-72 c 25,-40 72,-103 104,-141 z m 129,-351 c 78,-52 375,-201 509,-256 32,-13 56,-25 55,-26 -5,-5 -670,222 -706,240 -52,27 -128,108 -136,145 -4,18 -4,56 -1,85 l 6,51 95,-91 c 51,-51 132,-117 178,-148 z m 67,-217 c 101,-12 282,-55 365,-88 62,-25 62,-25 -120,-1 -264,35 -724,37 -811,3 -9,-3 -12,0 -9,9 12,29 66,50 158,58 51,5 110,15 132,23 43,15 124,14 285,-4 z m 176,-134 c 215,-25 455,-72 477,-94 4,-4 -7,-30 -26,-57 l -33,-50 -59,18 c -114,35 -251,57 -385,64 -166,8 -451,-10 -581,-36 -115,-24 -276,-78 -371,-126 -43,-22 -68,-30 -68,-22 0,24 66,164 94,201 46,60 153,98 331,117 109,12 464,3 621,-15 z m 959,-40 c 32,-9 81,-29 107,-45 27,-17 51,-30 54,-30 6,0 67,-48 134,-105 157.9615,-127.6043 190.0297,-163.2332 175.6516,-172.6453 C 2917.5249,5220.4889 2825.5773,5250.2916 2819,5190 c -10,-94 -50,-291 -68,-337 -27,-70 -83,-118 -198,-174 -57,-27 -111,-49 -119,-49 -17.8944,-9.6082 -28.2743,-33.5614 -43.7418,-48.4194 L 2360,4546 v 26 c 0,58 -70,168 -179,281 -184,189 -227,272 -219,419 8,164 101,283 245,317 61,15 194,12 258,-4 z m -875,-145 c 76,-8 305,-55 318,-65 2,-2 -2,-33 -9,-70 -10,-61 -13,-66 -33,-60 -96,28 -251,56 -366,66 -161,14 -290,4 -465,-36 -322,-73 -524,-182 -741,-399 l -92,-91 5,65 c 5,78 27,152 56,195 47,68 227,220 312,263 57,28 245,87 340,106 157,32 492,45 675,26 z m 60,-205 c 126,-21 250,-54 250,-69 0,-6 11,-36 23,-66 l 23,-56 -75,22 c -239,69 -674,57 -962,-27 -115,-33 -293,-126 -350,-182 -8,-7 -31,-26 -52,-41 -60,-46 -178,-193 -237,-296 -56,-98 -140,-276 -140,-297 0,-29 -19,-9 -44,46 -37,83 -34,114 20,216 25,48 54,111 64,141 38,109 248,316 437,432 139,84 398,164 623,192 96,11 299,4 420,-15 z m 1337,-137 c 16,-16 27,-50 38,-112 19,-112 19,-111 -7,-85 -13,11 -45,40 -72,62 -107,91 -97,73 -80,149 l 16,68 42,-29 c 22,-16 51,-40 63,-53 z m 180,-155 c 113,-153 134,-185 195,-303 143,-274 282,-686 333,-983 38,-225 67,-646 55,-802 -24,-303 -202,-802 -365,-1024 -53,-72 -64,-101 -46,-130 5,-7 58,-30 117,-51 60,-21 145,-52 189,-70 44,-17 122,-46 173,-65 147,-53 228,-110 251,-178 10,-27 10,-27 -35,-27 -63,0 -231,35 -337,71 -122,40 -305,125 -414,191 -65,39 -95,52 -102,45 -24,-24 -2,-49 79,-97 256,-151 579,-260 768,-260 h 79 l 66,-69 c 78,-80 87,-100 87,-186 0,-82 -11,-89 -135,-88 -181,1 -408,80 -604,210 -47,32 -97,67 -110,78 -109,91 -179,156 -243,225 -41,44 -78,80 -81,80 -4,0 -11,-9 -17,-20 -9,-17 -6,-27 16,-58 33,-44 156,-166 222,-219 26,-21 53,-44 61,-51 7,-7 57,-42 111,-78 254,-167 544,-252 737,-215 41,8 41,8 47,-24 4,-18 28,-63 55,-101 86,-124 94,-151 65,-223 -17,-44 -32,-51 -115,-51 -194,0 -520,166 -795,405 -144,125 -382,383 -452,488 -22,33 -27,36 -40,23 -30,-29 11,-100 142,-249 319,-362 684,-619 996,-703 36,-9 102,-17 147,-18 l 83,-1 v -43 c 0,-24 7,-56 15,-72 9,-17 13,-30 10,-30 -10,0 -234,62 -330,92 -189,58 -347,144 -559,301 -148,111 -166,126 -345,307 -146,148 -213,227 -226,268 -4,16 -14,22 -33,22 -21,0 -34,-11 -61,-50 -31,-45 -111,-127 -201,-205 -46,-40 -235,-185 -241,-185 -2,0 21,52 53,116 75,152 92,229 86,382 -6,130 -25,196 -85,290 -90,142 -253,232 -418,232 -71,0 -286,-33 -365,-55 -319,-90 -538,-42 -670,149 -52,76 -50,101 15,266 45,114 265,568 321,661 9,15 25,-5 112,-135 56,-84 104,-160 107,-169 4,-8 -3,-46 -15,-84 -20,-63 -21,-133 -2,-133 21,1 36,24 49,81 28,123 168,373 339,607 105,142 227,275 535,582 331,330 403,410 486,537 117,180 171,344 180,553 5,110 -5,253 -24,328 -3,12 -3,22 0,22 3,0 41,-48 84,-107 z M 921,4960 C 813,4907 743,4862 655,4788 392,4564 261,4318 243,4016 c -5,-93 -8,-106 -19,-91 -7,10 -18,43 -24,74 -6,31 -17,74 -24,96 -11,35 -11,47 5,92 55,164 223,454 309,537 117,112 281,213 420,257 93,29 98,21 11,-21 z m 1975,-25 c 6,-5 43,-39 82,-74 68,-59 72,-66 72,-105 0,-56 -19,-206 -28,-223 -5,-9 -24,10 -60,60 -29,40 -78,101 -110,136 l -58,64 18,56 c 9,31 20,73 23,94 7,42 4,43 61,-8 z m 1030,-41 c 65,-22 85,-43 91,-95 12,-107 -48,-267 -166,-446 -68,-104 -197,-262 -205,-252 -2,2 -10,24 -18,48 l -14,45 43,72 c 134,223 174,423 108,542 -14,24 -22,49 -19,54 9,14 85,48 110,48 11,0 43,-7 70,-16 z m 287,-41 c 35,-40 31,-90 -19,-248 -36,-111 -67,-173 -145,-291 -61,-90 -105,-143 -295,-352 l -51,-56 -17,57 c -18,62 -14,77 24,112 31,28 137,165 197,255 59,89 123,213 148,290 19,57 26,175 12,223 l -7,27 h 68 c 53,0 73,-4 85,-17 z m -517,-41 c 20,-13 34,-74 34,-146 0,-84 -44,-222 -104,-331 l -39,-68 -22,58 -21,58 23,58 c 43,106 51,228 22,327 -2,8 14,21 41,32 55,22 52,21 66,12 z m -180,-33 c 36,-30 42,-173 12,-278 l -13,-43 -49,103 c -27,57 -63,129 -81,160 -42,73 -35,83 54,75 35,-3 70,-11 77,-17 z m -673,-121 c 41,-51 93,-122 117,-157 l 42,-63 -26,-67 c -23,-59 -111,-221 -120,-221 -2,0 -32,48 -66,106 -68,115 -154,234 -219,303 l -42,45 78,37 c 43,21 94,53 113,72 19,20 38,36 42,36 3,1 40,-41 81,-91 z m -305,-153 c 69,-75 124,-156 212,-308 l 62,-108 -41,-52 c -23,-29 -79,-92 -125,-141 l -83,-89 -30,44 c -52,77 -240,393 -277,467 l -36,71 54,24 c 32,15 81,52 120,91 37,36 71,66 76,66 4,0 35,-29 68,-65 z m -354,-182 c 40,-82 135,-245 239,-412 l 90,-144 -119,-118 c -91,-90 -122,-115 -131,-106 -13,13 -191,369 -246,492 -20,44 -56,130 -80,190 l -44,110 31,13 c 43,19 101,30 171,31 l 61,1 z m -309,-113 c 65,-173 182,-427 288,-624 l 58,-109 -78,-81 c -93,-96 -80,-82 -126,-134 l -37,-42 -96,197 c -53,109 -122,259 -154,333 -69,163 -152,398 -144,411 3,5 12,9 20,9 22,0 133,58 183,97 25,18 47,30 51,26 3,-5 19,-42 35,-83 z m -986,31 c 44,-21 106,-46 138,-56 l 59,-17 48,-147 c 82,-253 185,-497 321,-766 73,-143 155,-300 183,-349 l 51,-89 -25,-38 c -13,-21 -39,-67 -58,-103 l -35,-66 -64,93 c -208.81,314.4914 -413.0506,684.4913 -540,992 -53,132 -101,298 -145,498 -11,48 -18,87 -17,87 2,0 40,-17 84,-39 z m 482,-96 h 155 l 18,-60 c 51,-173 205,-543 332,-797 52,-104 61,-128 50,-138 -8,-6 -56,-69 -107,-141 -50,-71 -93,-128 -94,-127 -11,14 -156,288 -226,428 -118,237 -204,444 -305,727 l -43,122 32,-7 c 18,-4 102,-7 188,-7 z M 464,3698 c 8,-33 -7,-43 -42,-29 -60,25 -112,152 -112,274 v 70 l 74,-144 c 40,-79 76,-156 80,-171 z m 3416,-28 c 74,-17 120,-41 126,-67 14,-56 -43,-186 -128,-295 -80,-101 -74,-101 -82,4 -7,99 -33,308 -43,346 -5,20 -2,22 38,22 24,0 64,-5 89,-10 z m 357,-110 h 41 l -14,-52 c -35,-134 -144,-295 -325,-482 -62,-64 -115,-116 -118,-116 -4,0 -7,53 -9,118 -2,110 -1,120 19,138 79,70 221,302 234,380 l 6,40 62,-13 c 34,-7 81,-13 104,-13 z m 167,-67 c 26,-18 54,-33 62,-33 8,0 14,-7 14,-16 0,-44 -186,-335 -322,-505 -73,-90 -386,-404 -395,-395 -2,2 3,30 11,62 8,33 20,94 25,138 l 11,79 110,105 c 201,191 345,393 395,554 11,35 23,55 29,51 z M 802,2940 c 66,-29 67,-30 83,-87 21,-71 79,-188 137,-275 l 45,-66 -37,-77 -37,-76 -53,63 c -74,89 -120,159 -174,266 -43,86 -106,253 -106,282 0,19 66,5 142,-30 z m -202,7 c 0,-36 37,-142 85,-244 54,-115 133,-236 213,-330 34,-40 62,-75 62,-80 0,-23 -47,-123 -58,-123 -17,0 -207,191 -264,265 -80,106 -188,318 -204,399 -5,29 -2,39 19,58 37,34 50,44 83,61 43,24 64,21 64,-6 z m 572,-77 64,-20 -64,-132 c -36,-73 -66,-135 -69,-138 -8,-9 -43,46 -97,155 -83,165 -84,155 17,155 56,0 107,-7 149,-20 z m -787,-85 c 23,-76 91,-218 150,-310 66,-102 211,-264 293,-325 61,-45 61,-46 50,-90 -6,-22 -15,-40 -21,-40 -16,0 -176,149 -255,240 -184,209 -382,507 -382,574 0,25 1,25 72,23 l 73,-2 z m 616,-967 c 137,-135 350,-168 624,-98 131,34 302,60 388,60 124,0 233,-47 318,-137 109,-115 154,-309 114,-496 -17,-80 -93,-246 -156,-338 -97,-144 -342,-357 -613,-532 l -59,-39 -26,21 c -85,68 -150,79 -299,49 -126,-25 -181,-20 -268,24 -62,31 -165,142 -203,220 -54,111 -91,296 -91,460 0,163 51,465 125,742 25,93 45,172 45,175 0,3 12,-10 27,-29 15,-19 48,-56 74,-82 z m 36,-1557 c 83,-32 136,-35 247,-12 147,31 165,27 71,-14 -116,-51 -180,-68 -229,-61 -67,11 -144,54 -177,99 -38,52 -37,64 4,33 17,-13 55,-34 84,-45 z"
       id="path4"
       sodipodi:nodetypes="ccccccccccccsccsccccccccccccccccsccccccccccccccccccccscccscccsccsscccccscscsssccccscscccscscccscscsccccccscccccccscccscsscccccccccccccccccscccccccccccccccccccccccccccccccccccccccccccccccccccccccscccccccccccccscccscccccccsccscccccccscscccccccccscccccccccccccccsccccccscccccscsccccccsccccccccscccccccccscccccccsccccccccccccccccccccccccsccscsccsccccscccccccccscscccccscsccccsccscccsccccccccccccccscccccscccccccsccccccccccccccccsccccccccccccsccscccccccccccccccccccsccccccccccccccccccscccccscsccccccccccccccsccccccccccccccccscsccscccccccsccsccccccccscscccscccccscsscscccccscccccccccscsccssccccscccccscccccscscccccscccccccccscsscccccccc"
       style="fill:#0c0c0c;fill-opacity:1;stroke:#ffffff;stroke-width:15.00000006;stroke-linecap:round;stroke-miterlimit:4;stroke-dasharray:none;stroke-opacity:1;paint-order:normal" />
    <path
       style="fill:#000000;fill-opacity:1;stroke:none;stroke-width:14.4975;stroke-miterlimit:4;stroke-dasharray:none;stroke-opacity:1"
       id="path2402"
       cx="2637.6472"
       cy="-6759.5293"
       r="429.17645"
       transform="scale(1,-1)" />
    <text
       xml:space="preserve"
       style="font-style:normal;font-weight:normal;font-size:300px;line-height:1.25;font-family:sans-serif;letter-spacing:0px;word-spacing:0px;fill:#000000;fill-opacity:1;stroke:none;stroke-width:7.5"
       x="1062.1436"
       y="472.59778"
       id="text2594"
       transform="scale(1,-1)"><tspan
         sodipodi:role="line"
         id="tspan2592"
         x="1062.1436"
         y="472.59778"
         style="font-style:normal;font-variant:normal;font-weight:bold;font-stretch:normal;font-family:sans-serif;-inkscape-font-specification:'sans-serif Bold';stroke-width:7.5" /></text>
    <circle
       transform="scale(1,-1)"
       cy="-6676.9346"
       cx="2756.5518"
       id="path2398"
       style="fill:#fff0f0;fill-opacity:1;stroke-width:0.811154;stroke-linecap:round"
       r="467.8551" />
    <g
       aria-label="𩵜月"
       transform="scale(1,-1)"
       id="text2402"
       style="font-style:normal;font-weight:normal;font-size:1000px;line-height:1.25;font-family:sans-serif;letter-spacing:0px;word-spacing:0px;fill:#0c0c0c;fill-opacity:1;stroke:none;stroke-width:7.5;stroke-opacity:1">
      <path
         d="m 4866.8374,-2044.8552 q 43,16 58,43 12,8 0,20 -4,11 -35,43 -16,39 -39,66 59,-8 101,-27 4,-16 28,-4 35,16 55,31 7,16 -4,24 -59,19 -145,117 66,-16 90,-28 8,-7 23,0 16,4 39,24 8,4 12,8 24,11 4,27 -12,0 -27,78 -12,59 -24,98 -23,51 -51,15 -62,0 -113,16 -51,8 -62,0 -4,27 -16,23 -16,-7 -19,-39 -4,-11 -8,-39 -8,-47 -16,-70 -8,-47 -31,-74 -8,-4 -4,-12 0,-4 12,-4 7,0 23,0 16,4 24,4 l 109,-19 q 62,-86 78,-122 4,-7 4,-15 -4,-4 -12,0 -54,19 -86,4 -74,90 -156,133 -8,3 -12,0 0,-8 8,-12 106,-94 164,-223 20,-39 8,-66 -8,-12 0,-20 8,-4 20,0 z m 347,-4 q 35,8 71,36 15,19 0,27 0,4 -8,12 -16,19 -20,31 -23,70 -58,140 136,-27 211,-70 11,-8 35,0 47,16 82,51 11,12 -4,23 -82,32 -149,86 -7,4 -11,4 -8,-4 -4,-12 27,-46 39,-78 4,-11 0,-15 -8,-8 -20,-4 -172,55 -195,43 -47,82 -113,140 -8,4 -12,0 -4,-3 4,-11 109,-157 144,-321 4,-46 -7,-62 -4,-24 15,-20 z m 20,352 q 35,4 62,31 16,12 4,24 -8,15 -8,43 0,43 4,171 4,79 4,94 -4,63 -35,113 -23,24 -31,4 -35,-62 -90,-105 -4,-8 -4,-12 4,-4 12,0 35,12 62,12 35,4 31,-20 8,-156 0,-265 -3,-59 -23,-74 -4,-8 0,-12 4,-8 12,-4 z m -282,-24 q -42,8 -97,20 35,4 31,23 0,16 0,40 27,-4 39,-4 24,0 31,11 8,4 -11,12 -32,16 -63,20 l -4,70 q 55,-16 74,-8 24,-62 28,-164 0,-23 -28,-20 z m -121,20 q -62,16 -86,16 8,11 16,66 0,8 0,12 47,-8 82,-20 0,-54 -12,-74 z m -117,273 q 28,43 -4,114 -15,51 -39,47 -15,-16 -11,-67 39,-47 39,-90 0,-7 3,-7 4,-4 12,3 z m 51,-171 q 8,74 12,89 l 74,-15 -4,-71 q -51,12 -82,-3 z m 230,144 q 63,12 79,47 11,62 -32,47 -31,-35 -54,-86 -8,-12 7,-8 z m -210,27 q 62,32 70,67 4,27 -8,39 -16,8 -35,-12 -27,-43 -35,-86 -4,-15 8,-8 z m 101,-11 q 66,15 74,58 4,24 -8,35 -11,8 -27,-3 0,0 -4,-4 -35,-47 -47,-82 -4,-4 0,-8 4,0 12,4 z"
         style="font-style:normal;font-variant:normal;font-weight:normal;font-stretch:normal;font-size:1000px;font-family:'Han-Nom Kai';-inkscape-font-specification:'Han-Nom Kai';text-align:center;writing-mode:tb-rl;text-anchor:middle;fill:#0c0c0c;fill-opacity:1;stroke:none;stroke-width:7.5;stroke-opacity:1"
         id="path2409" />
      <path
         d="m 5209.8374,-1036.8551 q 110,-4 129,63 -31,39 -31,113 -4,78 12,320 0,12 4,39 31,223 -51,289 -16,16 -51,-39 -31,-51 -55,-66 -31,-31 -27,-35 0,-4 51,7 4,0 8,0 35,12 46,-3 16,-16 12,-231 -8,-246 -23,-351 -4,-63 -59,-43 -8,0 -35,3 -82,12 -133,24 4,62 0,172 35,-4 90,-24 27,-7 35,-7 67,-4 59,27 -55,31 -184,35 -8,82 -12,145 8,3 63,-16 47,-16 70,-23 67,-8 71,19 -43,39 -207,47 -47,246 -207,340 -51,31 -59,23 -8,-8 35,-47 176,-144 184,-465 0,-7 0,-27 4,-172 -32,-219 -35,-46 86,-7 153,-28 211,-63 z"
         style="font-style:normal;font-variant:normal;font-weight:normal;font-stretch:normal;font-size:1000px;font-family:'Han-Nom Kai';-inkscape-font-specification:'Han-Nom Kai';text-align:center;writing-mode:tb-rl;text-anchor:middle;fill:#0c0c0c;fill-opacity:1;stroke:none;stroke-width:7.5;stroke-opacity:1"
         id="path2411" />
    </g>
  </g>
</svg>
