<?xml version="1.0" encoding="UTF-8"?>
<svg width="43mm" height="13.705mm" version="1.1" viewBox="0 0 43 13.705" xmlns="http://www.w3.org/2000/svg" xmlns:cc="http://creativecommons.org/ns#" xmlns:dc="http://purl.org/dc/elements/1.1/" xmlns:rdf="http://www.w3.org/1999/02/22-rdf-syntax-ns#">
 <metadata>
  <rdf:RDF>
   <cc:Work rdf:about="">
    <dc:format>image/svg+xml</dc:format>
    <dc:type rdf:resource="http://purl.org/dc/dcmitype/StillImage"/>
    <dc:title/>
   </cc:Work>
  </rdf:RDF>
 </metadata>
 <g transform="translate(-116.39 -63.017)">
  <g fill="none">
   <path d="m18.728 157.15h55.826v-55.826h-55.826z"/>
   <g stroke="#ffce14" stroke-linecap="square" stroke-width=".5">
    <path d="m21.78 157.07v-2.9404h-2.9404v2.9404"/>
    <path d="m18.839 157.07h1.9406v-1.9406h-0.94093v0.94092"/>
    <path d="m24.72 157.07h-2.9404"/>
    <path d="m24.72 157.07v-2.9404h-1.9406v1.9406"/>
    <path d="m22.779 156.07h0.94092v-0.94092"/>
    <path d="m28.895 157.07v-2.9404h-2.9404v2.9404"/>
    <path d="m25.955 157.07h1.9406v-1.9406h-0.94091v0.94092"/>
    <path d="m31.836 157.07h-2.9404"/>
    <path d="m31.836 157.07v-2.9404h-1.9406v1.9406"/>
    <path d="m29.895 156.07h0.94092v-0.94092"/>
    <path d="m35.952 157.07v-2.9404h-2.9404v2.9404"/>
    <path d="m33.012 157.07h1.9406v-1.9406h-0.94092v0.94092"/>
    <path d="m38.893 157.07h-2.9404"/>
    <path d="m38.893 157.07v-2.9404h-1.9406v1.9406"/>
    <path d="m36.952 156.07h0.94092v-0.94092"/>
    <path d="m43.068 157.07v-2.9404h-2.9404v2.9404"/>
    <path d="m40.128 157.07h1.9406v-1.9406h-0.94092v0.94092"/>
    <path d="m46.008 157.07h-2.9404"/>
    <path d="m46.008 157.07v-2.9404h-1.9406v1.9406"/>
    <path d="m44.068 156.07h0.94092v-0.94092"/>
    <path d="m50.275 157.07v-2.9404h-2.9404v2.9404"/>
    <path d="m47.335 157.07h1.9406v-1.9406h-0.94092v0.94092"/>
    <path d="m53.215 157.07h-2.9404"/>
    <path d="m53.215 157.07v-2.9404h-1.9406v1.9406"/>
    <path d="m51.275 156.07h0.94092v-0.94092"/>
    <path d="m57.391 157.07v-2.9404h-2.9404v2.9404"/>
    <path d="m54.45 157.07h1.9406v-1.9406h-0.94091v0.94092"/>
    <path d="m60.331 157.07h-2.9404"/>
    <path d="m60.331 157.07v-2.9404h-1.9406v1.9406"/>
    <path d="m58.39 156.07h0.94092v-0.94092"/>
    <path d="m64.448 157.07v-2.9404h-2.9404v2.9404"/>
    <path d="m61.507 157.07h1.9406v-1.9406h-0.94092v0.94092"/>
    <path d="m67.388 157.07h-2.9404"/>
    <path d="m67.388 157.07v-2.9404h-1.9406v1.9406"/>
    <path d="m65.447 156.07h0.94092v-0.94092"/>
    <path d="m71.563 157.07v-2.9404h-2.9404v2.9404"/>
    <path d="m68.623 157.07h1.9406v-1.9406h-0.94092v0.94092"/>
    <path d="m74.504 157.07h-2.9404"/>
    <path d="m74.504 157.07v-2.9404h-1.9406v1.9406"/>
    <path d="m72.563 156.07h0.94092v-0.94092"/>
    <path d="m71.562 104.35h2.9404v-2.9404"/>
    <path d="m74.502 101.41h-1.9406v1.9407h0.94092v-0.94093"/>
    <path d="m71.562 107.29v-2.9404"/>
    <path d="m71.562 107.29h2.9404v-1.9406h-1.9406"/>
    <path d="m72.562 105.35v0.94091h0.94093"/>
    <path d="m71.562 111.46h2.9404v-2.9404h-2.9404"/>
    <path d="m71.562 108.52v1.9406h1.9406v-0.94091h-0.94092"/>
    <path d="m71.562 114.4v-2.9404"/>
    <path d="m71.562 114.4h2.9404v-1.9406h-1.9406"/>
    <path d="m72.562 112.46v0.94092h0.94092"/>
    <path d="m71.562 118.52h2.9404v-2.9404h-2.9404"/>
    <path d="m71.562 115.58v1.9406h1.9406v-0.94092h-0.94092"/>
    <path d="m71.562 121.46v-2.9404"/>
    <path d="m71.562 121.46h2.9404v-1.9406h-1.9406"/>
    <path d="m72.562 119.52v0.94092h0.94092"/>
    <path d="m71.563 125.64h2.9404v-2.9404h-2.9404"/>
    <path d="m71.563 122.7v1.9406h1.9406v-0.94092h-0.94092"/>
    <path d="m71.563 128.58v-2.9404"/>
    <path d="m71.563 128.58h2.9404v-1.9406h-1.9406"/>
    <path d="m72.562 126.64v0.94091h0.94092"/>
    <path d="m71.563 132.84h2.9404v-2.9404h-2.9404"/>
    <path d="m71.563 129.9v1.9406h1.9406v-0.94092h-0.94092"/>
    <path d="m71.563 135.78v-2.9404"/>
    <path d="m71.563 135.78h2.9404v-1.9406h-1.9406"/>
    <path d="m72.562 133.84v0.94091h0.94092"/>
    <path d="m71.563 139.96h2.9404v-2.9404h-2.9404"/>
    <path d="m71.563 137.02v1.9406h1.9406v-0.94092h-0.94093"/>
    <path d="m71.563 142.9v-2.9404"/>
    <path d="m71.563 142.9h2.9404v-1.9406h-1.9406"/>
    <path d="m72.563 140.96v0.94092h0.94093"/>
    <path d="m71.563 147.02h2.9404v-2.9404h-2.9404"/>
    <path d="m71.563 144.08v1.9406h1.9406v-0.94092h-0.94093"/>
    <path d="m71.563 149.96v-2.9404"/>
    <path d="m71.563 149.96h2.9404v-1.9406h-1.9406"/>
    <path d="m72.563 148.02v0.94092h0.94093"/>
    <path d="m74.504 154.13v-2.9404h-2.9404"/>
    <path d="m71.563 151.19v1.9406h1.9406v-0.94092h-0.94092"/>
    <path d="m71.563 157.07h2.9404v-1.9406"/>
    <path d="m72.563 155.13v0.94091h0.94092"/>
    <path d="m21.778 101.41h-2.9404"/>
    <path d="m20.779 102.41h-0.94093"/>
    <path d="m18.838 107.29v-2.9404"/>
    <path d="m18.838 107.29h2.9404v-1.9406h-1.9406"/>
    <path d="m19.838 105.35v0.94091h0.94093"/>
    <path d="m18.838 111.46h2.9404v-2.9404h-2.9404"/>
    <path d="m18.838 108.52v1.9406h1.9406v-0.94091h-0.94092"/>
    <path d="m18.838 114.4v-2.9404"/>
    <path d="m18.838 114.4h2.9404v-1.9406h-1.9406"/>
    <path d="m19.838 112.46v0.94093h0.94092"/>
    <path d="m18.838 118.52h2.9404v-2.9404h-2.9404"/>
    <path d="m18.838 115.58v1.9406h1.9406v-0.94092h-0.94092"/>
    <path d="m18.838 121.46v-2.9404"/>
    <path d="m18.838 121.46h2.9404v-1.9406h-1.9406"/>
    <path d="m19.838 119.52v0.94092h0.94092"/>
    <path d="m18.839 125.64h2.9404v-2.9404h-2.9404"/>
    <path d="m18.839 122.7v1.9406h1.9406v-0.94092h-0.94092"/>
    <path d="m18.839 128.58v-2.9404"/>
    <path d="m18.839 128.58h2.9404v-1.9406h-1.9406"/>
    <path d="m19.838 126.64v0.94091h0.94092"/>
    <path d="m18.839 132.84h2.9404v-2.9404h-2.9404"/>
    <path d="m18.839 129.9v1.9406h1.9406v-0.94092h-0.94092"/>
    <path d="m18.839 135.78v-2.9404"/>
    <path d="m18.839 135.78h2.9404v-1.9406h-1.9406"/>
    <path d="m19.838 133.84v0.94091h0.94092"/>
    <path d="m18.839 139.96h2.9404v-2.9404h-2.9404"/>
    <path d="m18.839 137.02v1.9406h1.9406v-0.94092h-0.94093"/>
    <path d="m18.839 142.9v-2.9404"/>
    <path d="m18.839 142.9h2.9404v-1.9406h-1.9406"/>
    <path d="m19.839 140.96v0.94092h0.94093"/>
    <path d="m18.839 147.02h2.9404v-2.9404h-2.9404"/>
    <path d="m18.839 144.08v1.9406h1.9406v-0.94092h-0.94093"/>
    <path d="m18.839 149.96v-2.9404"/>
    <path d="m18.839 149.96h2.9404v-1.9406h-1.9406"/>
    <path d="m19.839 148.02v0.94092h0.94093"/>
    <path d="m18.839 154.13h2.9404v-2.9404h-2.9404"/>
    <path d="m18.839 151.19v1.9406h1.9406v-0.94092h-0.94092"/>
    <path d="m18.839 157.07v-2.9404"/>
    <path d="m19.839 155.13v0.94091"/>
    <path d="m21.778 104.35v-2.9404h-2.9404v2.9404"/>
    <path d="m18.838 104.35h1.9406v-1.9407h-0.94093v0.94093"/>
    <path d="m24.719 104.35h-2.9404"/>
    <path d="m24.719 104.35v-2.9404h-1.9406v1.9407"/>
    <path d="m22.778 103.35h0.94092v-0.94093"/>
    <path d="m28.894 104.35v-2.9404h-2.9404v2.9404"/>
    <path d="m25.954 104.35h1.9406v-1.9406h-0.94091v0.94092"/>
    <path d="m31.834 104.35h-2.9404"/>
    <path d="m31.834 104.35v-2.9404h-1.9406v1.9406"/>
    <path d="m29.894 103.35h0.94092v-0.94092"/>
    <path d="m35.951 104.35v-2.9404h-2.9404v2.9404"/>
    <path d="m33.011 104.35h1.9406v-1.9406h-0.94092v0.94092"/>
    <path d="m38.891 104.35h-2.9404"/>
    <path d="m38.891 104.35v-2.9404h-1.9406v1.9406"/>
    <path d="m36.951 103.35h0.94092v-0.94092"/>
    <path d="m43.067 104.35v-2.9404h-2.9404v2.9404"/>
    <path d="m40.126 104.35h1.9406v-1.9406h-0.94092v0.94092"/>
    <path d="m46.007 104.35h-2.9404"/>
    <path d="m46.007 104.35v-2.9404h-1.9406v1.9406"/>
    <path d="m44.066 103.35h0.94092v-0.94092"/>
    <path d="m50.274 104.35v-2.9404h-2.9404v2.9404"/>
    <path d="m47.333 104.35h1.9406v-1.9407h-0.94092v0.94093"/>
    <path d="m53.214 104.35h-2.9404"/>
    <path d="m53.214 104.35v-2.9404h-1.9406v1.9407"/>
    <path d="m51.273 103.35h0.94092v-0.94093"/>
    <path d="m57.389 104.35v-2.9404h-2.9404v2.9404"/>
    <path d="m54.449 104.35h1.9406v-1.9406h-0.94091v0.94092"/>
    <path d="m60.33 104.35h-2.9404"/>
    <path d="m60.33 104.35v-2.9404h-1.9406v1.9406"/>
    <path d="m58.389 103.35h0.94092v-0.94092"/>
    <path d="m64.446 104.35v-2.9404h-2.9404v2.9404"/>
    <path d="m61.506 104.35h1.9406v-1.9406h-0.94092v0.94092"/>
    <path d="m67.387 104.35h-2.9404"/>
    <path d="m67.387 104.35v-2.9404h-1.9406v1.9406"/>
    <path d="m65.446 103.35h0.94092v-0.94092"/>
    <path d="m71.562 104.35v-2.9404h-2.9404v2.9404"/>
    <path d="m68.622 104.35h1.9406v-1.9406h-0.94092v0.94092"/>
   </g>
   <g stroke="#ff8095" stroke-linecap="square" stroke-width=".765">
    <path d="m23.576 13.456h4.2333v-4.2333m4.4979 8.7312v-13.229h-8.7313v8.7313m8.7313 4.4979h-13.229m-13.229 0h8.7313v-8.7312h-4.2333v4.2333m8.7312 4.4979v-13.229h-13.229v13.229"/>
    <path d="m55.59 13.454h4.2333v-4.2333m4.4979 8.7312v-13.229h-8.7312v8.7313m8.7312 4.4979h-13.229m-13.229 0h8.7312v-8.7312h-4.2333v4.2333m8.7312 4.4979v-13.229h-13.229v13.229"/>
    <path d="m119.35 13.453h4.2333v-4.2333m4.4979 8.7313v-13.229h-8.7312v8.7313m8.7312 4.4979h-13.229m-13.229 0h8.7312v-8.7313h-4.2333v4.2333m8.7312 4.4979v-13.229h-13.229v13.229m-14.288-4.4965h4.2333v-4.2333m4.4979 8.7312v-13.229h-8.7312v8.7313m8.7312 4.4979h-13.229m-13.229 0h8.7312v-8.7312h-4.2333v4.2333m8.7313 4.4979v-13.229h-13.229v13.229"/>
   </g>
  </g>
  <text x="118.83511" y="91.520126" fill="#000000" font-family="sans-serif" font-size="10.583px" letter-spacing="0px" stroke-width=".26458" word-spacing="0px" style="line-height:1.25" xml:space="preserve"><tspan x="118.83511" y="91.520126" stroke-width=".26458"/></text>
  <g transform="translate(-57.278 53.555)">
   <g transform="translate(64.145 -45.97)">
    <g fill="#1c1c1c" stroke-width=".26458" aria-label="moon fish">
     <path d="m111.21 61.624h0.0952l0.11641 0.02117 0.0635-0.02117q0.43392 0.0635 0.635 0.21167 0.508 0.4445 0.62442 0.77258l0.0212 0.0635-0.0212 0.03175 0.0212 0.03175 0.48683-0.127q0.28575 0 0.60325 0.22225 0.94192-1.0477 1.8732-1.0477h0.27516q0.73025 0 0.97366 0.889 0.0529 0 0.11642 0.66675v0.14817l-0.0212 0.09525 0.0212 0.02117q0 0.81491-0.4445 1.6722-0.22225 0.635-0.93133 1.5875l-0.24341 0.17992-0.0741-0.05292q0.33867-0.27517 0.56092-0.68791 0.40216-0.56092 0.635-1.4182l0.11641-0.71966-0.0106-0.09525 0.0106-0.15875-0.0423-0.49742v-0.127q-0.15875-0.889-0.41275-0.889-0.39158 0-1.0372 1.1853-0.17992 0.27517-0.3175 0.84666-0.0423 0.05292-0.0635 0.08467-0.0741 0.09525-0.21167 0.21167-0.0529 0.0635-0.46566 0.15875l-0.27517-0.127q-0.40216-0.46566-0.45508-0.762v-0.13758q0.0106-0.08467 0.0423-0.1905t0.10584-0.23283q-0.0635-0.11642-0.15875-0.13758-0.65617 0-0.65617 0.86783l0.0106 0.47625-0.0529 0.0635 0.0212 0.02117v0.05292q-0.0423 0.10583-0.20109 0.20108l-0.39158 0.01058q-0.0635 0-0.23283-0.29633-0.15875-0.30692-0.43392-0.40216 0-0.11642-0.17991-0.11642-0.0529-0.07408-0.0741-0.16933 0-0.17992 0.17992-0.32808 0-0.07408 0.17992-0.35983 0.23283-0.13758 0.24341-0.21167l0.0318-0.09525q0-0.55033-0.42333-0.96308-0.26458-0.11642-0.56092-0.11642h-0.0423q-0.47625 0-1.1112 0.34925l-0.0212-0.02117-0.14817 0.07408-0.0317-0.04233q0.30692-0.17992 0.48683-0.22225l-0.0212-0.03175v-0.04233l0.0423-0.04233 0.10583-0.04233q0.0529-0.02117 0.22225-0.09525 0.17992-0.07408 0.21167-0.08467 0.10583-0.04233 0.635-0.10583zm-1.143 0.37042v0.05292h0.0952l0.0423-0.05292zm-0.10583 0.04233-0.0423 0.05292-0.0318-0.02117 0.0318-0.03175z"/>
     <path d="m118.99 60.438q0.15875 0.15875 0.16933 0.24342 0 0.08467 0.0952 0.17992l0.0741-0.03175 0.40217 0.15875q0.0529 0.03175 0.11641 0.05292 0.0741 0.02117 0.15875 0.04233l0.10584 0.127v0.11642q0.0635 0 0.0635 0.08467l-0.0106 0.02117q0 0.09525 0.14817 0.09525l0.13758-0.03175q0.0635 0.05292 0.0741 0.13758 0.0635-0.03175 0.0635-0.05292l0.10584-0.01058 0.15875 0.03175 0.0529-0.02117 0.0529 0.02117 0.0741-0.07408h0.0741l0.0847 0.07408q-0.0318 0.03175-0.0529 0.04233-0.0847 0.0635-0.17992 0.09525-0.0953 0.0635-0.49742 0.21167-0.0106 0.01058-0.0212 0.01058-0.0953 0.0635-0.1905 0.09525l-0.0106 0.48683 0.0106 0.11642-0.0106 0.13758 0.0106 0.04233q-0.0847 0.80433-0.24342 1.0372-0.0953 0.24342-0.22225 0.39158 0 0.13758-0.43391 0.508-0.32808 0.24342-0.60325 0.24342h-0.32808q-0.1905 0-0.254-0.09525-0.22225 0-0.53975-0.61383 0-0.0635-0.10583-0.23283-0.127-0.27517-0.127-0.45508-0.0106-0.03175-0.0212-0.09525-0.0106-0.07408-0.0106-0.127 0-0.41275 0.381-1.4182l0.32808-0.55033q0.16933-0.32808 0.48683-0.66675 0.0423-0.127 0.32808-0.29633l0.0529 0.02117zm-0.49742 3.2279v0.24342l-0.0212 0.02117 0.0212 0.02117v0.26458q0.0212 0.0635 0.11642 0.0635h0.0635q0.20108 0 0.58208-0.34925 0.34925-0.46567 0.39158-0.75142 0-0.34925 0.0635-0.34925l-0.0317-0.01058v-0.24342l0.0317-0.27516q-0.0106-0.05292-0.0423-0.08467-0.0212-0.03175-0.0318-0.04233h-0.0847q-0.46566 0.17992-0.53975 0.39158-0.13758 0.01058-0.45508 0.73025-0.0635 0.24342-0.0635 0.37042z"/>
     <path d="m122.55 60.438q0.15875 0.15875 0.16934 0.24342 0 0.08467 0.0952 0.17992l0.0741-0.03175 0.40216 0.15875q0.0529 0.03175 0.11642 0.05292 0.0741 0.02117 0.15875 0.04233l0.10583 0.127v0.11642q0.0635 0 0.0635 0.08467l-0.0106 0.02117q0 0.09525 0.14817 0.09525l0.13758-0.03175q0.0635 0.05292 0.0741 0.13758 0.0635-0.03175 0.0635-0.05292l0.10583-0.01058 0.15875 0.03175 0.0529-0.02117 0.0529 0.02117 0.0741-0.07408h0.0741l0.0847 0.07408q-0.0318 0.03175-0.0529 0.04233-0.0847 0.0635-0.17991 0.09525-0.0953 0.0635-0.49742 0.21167-0.0106 0.01058-0.0212 0.01058-0.0952 0.0635-0.19049 0.09525l-0.0106 0.48683 0.0106 0.11642-0.0106 0.13758 0.0106 0.04233q-0.0847 0.80433-0.24342 1.0372-0.0953 0.24342-0.22225 0.39158 0 0.13758-0.43391 0.508-0.32809 0.24342-0.60325 0.24342h-0.32809q-0.19049 0-0.25399-0.09525-0.22225 0-0.53975-0.61383 0-0.0635-0.10584-0.23283-0.127-0.27517-0.127-0.45508-0.0106-0.03175-0.0212-0.09525-0.0106-0.07408-0.0106-0.127 0-0.41275 0.381-1.4182l0.32809-0.55033q0.16933-0.32808 0.48683-0.66675 0.0423-0.127 0.32808-0.29633l0.0529 0.02117zm-0.49741 3.2279v0.24342l-0.0212 0.02117 0.0212 0.02117v0.26458q0.0212 0.0635 0.11641 0.0635h0.0635q0.20109 0 0.58209-0.34925 0.34924-0.46567 0.39158-0.75142 0-0.34925 0.0635-0.34925l-0.0318-0.01058v-0.24342l0.0318-0.27516q-0.0106-0.05292-0.0423-0.08467-0.0212-0.03175-0.0318-0.04233h-0.0847q-0.46567 0.17992-0.53975 0.39158-0.13758 0.01058-0.45508 0.73025-0.0635 0.24342-0.0635 0.37042z"/>
     <path d="m127.06 61.814 0.34925 0.02117q0.45508 0.17992 0.65616 0.381l0.28575 0.40217q0.0635 0.0635 0.127 0.26458l0.0529 0.21167 0.0847 0.23283 0.0847 0.78316-0.0317 0.48683-0.0212 0.05292-0.0212 0.08467 0.0106 0.04233-0.0212 0.08467 0.0106 0.03175q0 0.127-0.0952 0.28575 0.0317 0.03175-0.0318 0.1905 0 0.127-0.13759 0.35983l-0.0529 0.16933q-0.0847 0.09525-0.23284 0.42333l-0.0317 0.01058-0.0318-0.10583q0.16934-0.43392 0.254-0.73025 0.0952-0.29633 0.0952-0.39158l0.0952-0.55033v-0.30691q0-0.41275-0.0317-0.65616-0.0212-0.254-0.127-0.52916-0.24341-0.37042-0.42333-0.52916l-0.0847-0.01058-0.10583-0.02117-0.37041 0.03175-0.40217 0.28575q0 0.08467-0.23283 0.30692-0.30692 0.46566-0.32808 0.61383-0.11642 0.11642-0.24342 0.37042 0 0.09525-0.13758 0.24342v0.15875l-0.0212 0.41275q-0.0106 0.05292-0.10583 0.05292l-0.0318-0.02117h-0.0741l-0.23283-0.03175-0.0635-0.14817q-0.0635-0.03175-0.0635-0.08467l0.0318-0.11642q-0.0318-0.127-0.13758-0.15875l-0.0635 0.01058-0.0952-0.13758-0.0106-0.08467-0.0635 0.03175-0.21167-0.08467-0.11642 0.01058q-0.0741-0.1905-0.127-0.21167h-0.0847l-0.0318-0.04233q0.0212-0.03175 0.0318-0.05292 0.0635-0.07408 0.127-0.11642 0-0.14817 0.3175-0.45508l0.0529-0.17992q0.0847 0 0.0847-0.37042 0-0.35983-0.33867-0.52916-0.0423-0.0635-0.254-0.11642l-0.0847-0.05292q-0.0847-0.02117-0.27517-0.02117-0.22225 0-0.52916 0.20108l-0.0741 0.07408-0.0212-0.02117-0.0318-0.0635 0.0106-0.05292q0.17992-0.21167 0.70908-0.33866l0.0423 0.03175 0.13758-0.0635 0.0529 0.01058 0.0635 0.02117 0.15875 0.01058 0.21167 0.14817-0.0318-0.05292q0.26458 0.0635 0.47625 0.30692 0.0847 0.01058 0.21166 0.254l0.0529 0.05292q0.11642-0.127 0.27517-0.23283 0.0635-0.11642 0.41275-0.28575l0.16933-0.09525 0.24341-0.08467q0.16934 0 0.254-0.02117z"/>
     <path d="m135.78 60.057q0.16934 0 0.93134 0.381 0.21166 0.07408 0.24341 0.26458l0.0635 0.05292v0.32808q-0.15875 0.51858-0.59266 0.51858l-0.0317 0.02117h-0.26459q-0.0847 0.0635-0.26458 0.09525l-0.14816-0.02117q-0.20109 0-0.51859 0.17992 0.0741 0.03175 0.0847 0.10583 0.40217 0.0635 0.43392 0.21167l0.0635 0.05292v0.05292q0 0.16933-0.14816 0.27516 0 0.09525-0.11642 0.127l0.0212 0.23283-0.0635 0.13758v0.71966l-0.0212 0.254 0.0635 0.11642q0.37042-0.21167 0.58208-0.21167l0.0318 0.02117 0.34925-0.10583h0.17992v0.05292l-0.381 0.127q-0.17992 0-0.35983 0.14817l0.0423 0.02117 0.381-0.127h0.0529v0.05292h0.0635l0.11641-0.1905 0.0423 0.09525 0.11641-0.05292 0.0423 0.03175v0.04233l-0.0847 0.0635-0.17992 0.10583q0 0.15875-0.52916 0.43392-0.28575 0.15875-0.52917 0.40216l-0.0317-0.02117-0.10583 0.13758v0.05292l0.0847 0.02117 0.0212-0.02117-0.0212-0.02117v-0.127l0.0741 0.05292-0.0212 0.09525 0.0212 0.07408q0 0.127-0.0741 0.15875-0.0212-0.01058-0.0423-0.03175-0.0106-0.02117-0.0212-0.03175l0.0318-0.07408-0.14817 0.07408 0.0318 0.254-0.0318 0.03175 0.0635 0.15875v0.05292l-0.0317 0.10583 0.0317 0.02117 0.0847-0.20108-0.0318-0.03175h0.0635l0.0212 0.127v0.10583l-0.0212 0.03175 0.0529 0.13758q-0.0847 0-0.0847 0.508v0.62442l0.0317 0.127-0.0317 0.03175q0 0.10583 0.0847 0.14817l-0.0317 0.11642v0.07408l0.21167 0.37042q0.11641 0.03175 0.26458 0.381l-0.17991 0.33866-0.0847 0.05292 0.0106 0.08467-0.0106 0.04233-0.0952-0.02117-0.3175 0.05292q-0.60325-0.1905-0.60325-0.43392l-0.1905-0.22225q-0.0741-0.05292-0.11641-0.127-0.24342-0.33867-0.29634-0.53975v-0.09525q0-0.08467 0.0423-0.20108 0.0423-0.11642 0.16933-0.381l-0.0529-0.14817v-0.10583l0.0212-0.02117-0.0529-0.04233-0.0317-0.03175 0.0212-0.03175-0.0423-0.03175-0.0317-0.03175v-0.127l0.0212-0.127-0.0635-0.03175 0.0635-0.05292h0.0529q0.0635 0.254 0.20108 0.26458l0.0635 0.04233v0.14817l-0.0847 0.09525 0.0212 0.11642-0.0212-0.03175-0.0317 0.03175 0.0529 0.1905h-0.0529v0.07408q0.0317-0.08467 0.14816-0.09525 0 0.23283 0.14817 0.26458l0.0423 0.08467 0.0212-0.07408-0.0212-0.15875 0.0529-0.09525-0.0318-0.02117v-0.07408h0.0529v0.05292l0.0635-0.17992-0.0635-0.05292 0.0635-0.07408v-0.37042q0.0635 0 0.0847-0.15875 0-0.11642-0.0635-0.14817l0.0317-0.16933v-0.08467l-0.0317-0.26458 0.0317-0.0635h-0.0529l-0.11641 0.0635-0.0212-0.02117-0.17991 0.13758q-0.11642-0.02117-0.20109-0.04233-0.0847-0.01058-0.24341-0.07408l-0.0741-0.02117q0-0.16933-0.37041-0.16933l-0.0529-0.05292 0.0529-0.08467v-0.24342q0.0529-0.05292 0.20108-0.34925l0.0847-0.03175 0.14816-0.08467q0.15875-0.10583 0.32809-0.10583l0.0635 0.05292q0.0635-0.0635 0.20108-0.07408l0.0953-0.05292 0.10583-0.02117 0.0317-0.04233-0.0317-0.02117 0.0635-0.09525-0.0317-0.22225 0.0317-0.6985-0.0317-0.07408 0.0317-0.14817v-0.22225l-0.0317-0.08467 0.0635-0.09525-0.0318-0.02117 0.0318-0.17992-0.0318-0.09525 0.0318-0.254v-0.14817l-0.0635-0.04233q-0.15875 0.03175-0.30691 0.08467-0.13759 0.04233-0.24342 0.127l-0.0635-0.02117-0.33867 0.127-0.0741-0.05292q0.0952-0.13758 0.27517-0.16933l-0.0423-0.03175 0.26459-0.17992 0.52916-0.26458 0.64558-0.381q0.14817-0.05292 0.21167-0.11642h0.0529v-0.04233l-0.34925-0.03175q-0.16934 0-0.52917 0.14817-0.762 0.1905-0.89958 0.37042l-0.46566 0.07408-0.11642-0.09525-0.0423 0.02117q-0.20109 0-0.4445-0.27517l0.0423-0.11642h-0.11642q-0.127 0-0.1905-0.09525v-0.10583l0.0635-0.03175 0.20109-0.07408 0.20108 0.01058 0.65616-0.23283q0.10584 0 0.32809-0.11642l0.71966-0.14817q0.0847 0 0.35983-0.15875 0.39159-0.14817 0.64558-0.14817zm1.7039 3.5137q-0.14817 0.16933-0.35984 0.16933l-0.0212-0.02117q0.15875-0.11642 0.381-0.14817zm-0.61384 0.14817 0.0529 0.04233 0.0318-0.02117h0.0635l0.0423 0.05292-0.0741 0.04233-0.0317-0.04233q-0.0953 0-0.22225 0.09525h-0.0529v-0.05292l0.14816-0.04233 0.0106-0.04233zm-1.4182 1.778 0.0212 0.03175-0.0318 0.127-0.0423 0.07408h-0.0635q0-0.1905 0.11641-0.23283zm-1.5981 0.28575 0.15875 0.127-0.0529 0.05292 0.11641 0.24342v0.10583h-0.0635l-0.0529-0.05292v-0.07408l0.0317-0.02117-0.0529-0.09525-0.0635-0.15875-0.0212-0.03175z"/>
     <path d="m138.41 60.1q0.29633 0 0.45508 0.45508 0 0.27517-0.47625 0.68792-0.10583 0.04233-0.29633 0.09525-0.1905 0.04233-0.41275 0.08467-0.10583 0-0.11641-0.05292 0-0.11642 0.11641-0.35983l-0.0741-0.60325q0.0952 0 0.48683-0.24342zm-0.41275 1.5557q0.508 0.21167 0.508 0.5715 0.15875 0.32808 0.39158 0.52916l0.0847 0.1905q0 0.3175-0.4445 0.53975 0 0.0635-0.0847 0.0635-0.0635 0.11642-0.26458 0.1905-0.30692 0.51858-0.30692 1.0901l-0.0212 0.05292 0.0212 0.07408-0.0212 0.02117 0.0212 0.03175-0.0212 0.11642 0.0423 0.04233-0.0423 0.01058 0.0212 0.13758-0.0212 0.05292 0.0423 0.35983-0.0212 0.02117q-0.10583 0-0.14816-0.55033-0.0635 0-0.16933-1.2277-0.0212-0.05292-0.0212-0.08467-0.0529-0.254-0.0529-0.58208l0.0106-0.07408-0.0317-0.02117 0.0212-0.09525v-0.28575l-0.0212-0.17992q0-0.34925 0.15875-0.8255 0.14816-0.16933 0.37041-0.16933z"/>
     <path d="m143.12 60.788 0.27517 0.07408 0.0741-0.02117q0.66675 0.4445 0.66675 0.65616 0.0529 0.01058 0.21167 0.34925l0.10583 0.48683-0.0212 0.03175 0.0212 0.11642v0.04233l-0.0212 0.15875 0.0212 0.13758v0.15875h0.11642q0.75141 0 1.1642 0.381h-0.0423q-0.53975-0.127-0.81492-0.127h-0.34925q-0.127 0-0.127 0.20108-0.0635 0.47625-0.32808 0.93133-0.35983 0.58208-0.83608 0.58208-0.26458 0-0.39158-0.26458l-0.0423-0.4445q0.15875-0.52916 0.508-0.762l0.381-0.24342 0.0529-0.51858v-0.26458q-0.0635-0.64558-0.20108-0.8255-0.254-0.508-0.8255-0.508-0.49742 0-1.2912 0.85725-0.83609 1.0901-1.0266 1.8627l0.0106 0.08467q-0.0529 0-0.20108 0.762l0.0317 0.32808-0.0317 0.07408q0.127 0 0.127 0.26458-0.14817 0.0635-0.21167 0.16933-0.0952 0-0.24342-0.127-0.10583 0-0.11641-0.07408l-0.0635-0.04233h-0.21167l-0.0212-0.02117v-0.09525q-0.0635-0.22225-0.1905-0.24342l-0.0106-0.04233-0.0212 0.02117-0.0741-0.05292q0-0.127 0.0952-0.15875l0.0529-0.254-0.0212-0.02117q0.0635-0.29633 0.51858-1.1536 0.127-0.27517 0.53975-0.77258 0-0.10583 0.20109-0.23283 0-0.11642 1.0372-1.0583 0.0741 0 0.5715-0.32808 0.15875 0 0.24341-0.05292h0.0635zm-0.0318 3.8206 0.0741 0.07408h0.0529q0.14817-0.0635 0.32809-0.47625 0.127-0.46566 0.127-0.70908-0.381 0.1905-0.58209 0.81491z"/>
     <path d="m147.41 55.432h0.0741q0.5715 0 0.5715 1.1853v0.254l0.0212 0.20108q0 1.6827-1.1218 4.5614-0.4445 0.81491-0.46567 0.98425 0.16934 0.6985 0.35984 1.0054 0.62441-0.83608 1.2065-0.83608 0.59267 0.127 0.87842 0.67733l0.16933 0.3175q0.3175 0.92075 0.58208 0.87841l0.10583-0.11642 0.0847-0.20108 0.10583-0.3175 0.0952-0.35983 0.11642-0.4445 0.10583-0.74083q0.0212 0.13758 0.0212 0.28575 0 0.13758 0 0.27517 0 0.20108-0.0106 0.43392-0.0106 0.22225-0.0423 0.45508-0.127 0.86783-0.52916 1.0795-0.14817 0.05292-0.32809 0.05292-0.55033 0-0.93133-0.6985-0.127-0.29633-0.24341-0.33867l-0.0847-0.01058q-0.1905-0.0635-0.508 0.66675-0.127 0.30692-0.37041 0.30692h-0.21167q-0.1905 0-0.42333-0.37042-0.254-0.127-0.26458-0.29633l0.0423-0.13758q-0.21167-0.508-0.21167-1.1536-0.0317 0.0635-0.25399 0.33867-0.22225 0.26458-0.37042 0.43392-0.40217 0.47625-0.73025 0.71966-0.11641 0-0.14816-0.07408 0.49741-0.37042 0.94191-1.0266l0.52916-0.79375q-0.0423-0.35983-0.0741-0.79375-0.0317-0.43392-0.0317-0.75141l-0.0106-0.08467 0.0106-0.127v-0.10583q0-3.4078 0.83608-4.9424 0.30692-0.39158 0.508-0.39158zm-1.0583 4.1698 0.0212 0.09525-0.0212 0.09525 0.0212 0.08467-0.0212 0.27517 0.0212 0.34925q-0.0741 0.01058-0.0847 0.14817 0.0847 0 0.14817 0.635l-0.0212 0.20108 0.0741 0.3175-0.0529 0.254v0.11642q0.78316-1.6933 0.78316-1.9367 0.5715-1.8415 0.5715-2.7517v-0.27517q0-1.0477-0.381-1.0477-0.39158 0-0.79375 1.4605-0.11641 0.51858-0.1905 1.0583-0.0741 0.52916-0.0741 0.92075zm-0.0212 1.6616 0.0212-0.11642zm0.0212 0.8255 0.0212-0.10583z"/>
    </g>
    <circle transform="rotate(15)" cx="163.46" cy="22.976" r=".58318" fill="#fff0f0"/>
   </g>
  </g>
  <g fill="none">
   <g transform="translate(-87.231 -10.591)" stroke="#ff8095" stroke-linecap="square">
    <g stroke-width=".5">
     <rect transform="scale(1,-1)" x="105.59" y="-100.49" width="55.826" height="55.826"/>
     <path d="m108.64 100.41v-2.9404h-2.9404v2.9404"/>
     <path d="m105.7 100.41h1.9406v-1.9407h-0.94093v0.94093"/>
     <path d="m111.58 100.41h-2.9404"/>
     <path d="m111.58 100.41v-2.9404h-1.9406v1.9407"/>
     <path d="m109.64 99.412h0.94092v-0.94093"/>
     <path d="m115.76 100.41v-2.9404h-2.9404v2.9404"/>
     <path d="m112.82 100.41h1.9406v-1.9406h-0.94091v0.94092"/>
     <path d="m118.7 100.41h-2.9404"/>
     <path d="m118.7 100.41v-2.9404h-1.9406v1.9406"/>
     <path d="m116.76 99.412h0.94092v-0.94092"/>
     <path d="m122.81 100.41v-2.9404h-2.9404v2.9404"/>
     <path d="m119.87 100.41h1.9406v-1.9406h-0.94092v0.94092"/>
     <path d="m125.76 100.41h-2.9404"/>
     <path d="m125.76 100.41v-2.9404h-1.9406v1.9406"/>
     <path d="m123.81 99.412h0.94092v-0.94092"/>
     <path d="m129.93 100.41v-2.9404h-2.9404v2.9404"/>
     <path d="m126.99 100.41h1.9406v-1.9406h-0.94092v0.94092"/>
     <path d="m132.87 100.41h-2.9404"/>
     <path d="m132.87 100.41v-2.9404h-1.9406v1.9406"/>
     <path d="m130.93 99.411h0.94092v-0.94092"/>
     <path d="m137.14 100.41v-2.9404h-2.9404v2.9404"/>
     <path d="m134.2 100.41h1.9406v-1.9407h-0.94092v0.94093"/>
     <path d="m140.08 100.41h-2.9404"/>
     <path d="m140.08 100.41v-2.9404h-1.9406v1.9407"/>
     <path d="m138.14 99.411h0.94092v-0.94093"/>
     <path d="m144.25 100.41v-2.9404h-2.9404v2.9404"/>
     <path d="m141.31 100.41h1.9406v-1.9406h-0.94091v0.94092"/>
     <path d="m147.19 100.41h-2.9404"/>
     <path d="m147.19 100.41v-2.9404h-1.9406v1.9406"/>
     <path d="m145.25 99.411h0.94092v-0.94092"/>
     <path d="m151.31 100.41v-2.9404h-2.9404v2.9404"/>
     <path d="m148.37 100.41h1.9406v-1.9406h-0.94092v0.94092"/>
     <path d="m154.25 100.41h-2.9404"/>
     <path d="m154.25 100.41v-2.9404h-1.9406v1.9406"/>
     <path d="m152.31 99.411h0.94092v-0.94092"/>
     <path d="m158.43 100.41v-2.9404h-2.9404v2.9404"/>
     <path d="m155.49 100.41h1.9406v-1.9407h-0.94092v0.94092"/>
     <path d="m161.37 100.41h-2.9404"/>
     <path d="m161.37 100.41v-2.9404h-1.9406v1.9406"/>
     <path d="m159.43 99.411h0.94092v-0.94092"/>
     <path d="m158.42 47.686h2.9404v-2.9404"/>
     <path d="m161.37 44.746h-1.9406v1.9407h0.94092v-0.94093"/>
     <path d="m158.42 50.627v-2.9404"/>
     <path d="m158.42 50.627h2.9404v-1.9406h-1.9406"/>
     <path d="m159.42 48.686v0.94091h0.94093"/>
     <path d="m158.42 54.802h2.9404v-2.9404h-2.9404"/>
     <path d="m158.42 51.862v1.9406h1.9406v-0.94091h-0.94092"/>
     <path d="m158.42 57.743v-2.9404"/>
     <path d="m158.42 57.743h2.9404v-1.9406h-1.9406"/>
     <path d="m159.42 55.802v0.94092h0.94092"/>
     <path d="m158.42 61.859h2.9404v-2.9404h-2.9404"/>
     <path d="m158.42 58.919v1.9406h1.9406v-0.94092h-0.94092"/>
     <path d="m158.42 64.799v-2.9404"/>
     <path d="m158.42 64.799h2.9404v-1.9406h-1.9406"/>
     <path d="m159.42 62.859v0.94092h0.94092"/>
     <path d="m158.43 68.975h2.9404v-2.9404h-2.9404"/>
     <path d="m158.43 66.034v1.9406h1.9406v-0.94092h-0.94092"/>
     <path d="m158.43 71.915v-2.9404"/>
     <path d="m158.43 71.915h2.9404v-1.9406h-1.9406"/>
     <path d="m159.43 69.975v0.94091h0.94092"/>
     <path d="m158.43 76.182h2.9404v-2.9404h-2.9404"/>
     <path d="m158.43 73.241v1.9406h1.9406v-0.94092h-0.94092"/>
     <path d="m158.43 79.122v-2.9404"/>
     <path d="m158.43 79.122h2.9404v-1.9406h-1.9406"/>
     <path d="m159.43 77.182v0.94091h0.94092"/>
     <path d="m158.43 83.298h2.9404v-2.9404h-2.9404"/>
     <path d="m158.43 80.357v1.9406h1.9406v-0.94091h-0.94093"/>
     <path d="m158.43 86.238v-2.9404"/>
     <path d="m158.43 86.238h2.9404v-1.9406h-1.9406"/>
     <path d="m159.43 84.297v0.94092h0.94093"/>
     <path d="m158.43 90.354h2.9404v-2.9404h-2.9404"/>
     <path d="m158.43 87.414v1.9406h1.9406v-0.94092h-0.94093"/>
     <path d="m158.43 93.295v-2.9404"/>
     <path d="m158.43 93.295h2.9404v-1.9406h-1.9406"/>
     <path d="m159.43 91.354v0.94092h0.94093"/>
     <path d="m161.37 97.47v-2.9404h-2.9404"/>
     <path d="m158.43 94.53v1.9406h1.9406v-0.94092h-0.94092"/>
     <path d="m158.43 100.41h2.9404v-1.9407"/>
     <path d="m159.43 98.47v0.94091h0.94092"/>
    </g>
    <g transform="matrix(0 .69366 -.69366 0 183.39 -28.067)" stroke-width=".72081">
     <path d="m104.97 107.75v4.2389"/>
     <path d="m106.41 109.19v1.3565"/>
     <path d="m113.45 111.99h-4.2389"/>
     <path d="m113.45 111.99v-4.2389h-2.7977v2.7977"/>
     <path d="m110.65 110.55h1.3564v-1.3565"/>
     <path d="m119.47 111.99v-4.2389h-4.2389v4.2389"/>
     <path d="m115.23 111.99h2.7977v-2.7977h-1.3564v1.3564"/>
     <path d="m123.71 111.99h-4.2389"/>
     <path d="m123.71 111.99v-4.2389h-2.7977v2.7977"/>
     <path d="m120.91 110.55h1.3564v-1.3564"/>
     <path d="m129.64 111.99v-4.2389h-4.2389v4.2389"/>
     <path d="m125.4 111.99h2.7977v-2.7977h-1.3564v1.3564"/>
     <path d="m133.88 111.99h-4.2389"/>
     <path d="m133.88 111.99v-4.2389h-2.7977v2.7977"/>
     <path d="m131.08 110.55h1.3564v-1.3564"/>
     <path d="m139.9 111.99v-4.2389h-4.2389v4.2389"/>
     <path d="m135.66 111.99h2.7977v-2.7977h-1.3564v1.3564"/>
     <path d="m144.14 111.99h-4.2389"/>
     <path d="m144.14 111.99v-4.2389h-2.7977v2.7977"/>
     <path d="m141.34 110.55h1.3564v-1.3564"/>
     <path d="m150.29 111.99v-4.2389h-4.2389v4.2389"/>
     <path d="m146.05 111.99h2.7977v-2.7977h-1.3564v1.3565"/>
     <path d="m154.53 111.99h-4.2389"/>
     <path d="m154.53 111.99v-4.2389h-2.7977v2.7977"/>
     <path d="m151.73 110.55h1.3564v-1.3565"/>
     <path d="m160.55 111.99v-4.2389h-4.2389v4.2389"/>
     <path d="m156.31 111.99h2.7977v-2.7977h-1.3564v1.3564"/>
     <path d="m164.79 111.99h-4.2389"/>
     <path d="m164.79 111.99v-4.2389h-2.7977v2.7977"/>
     <path d="m161.99 110.55h1.3564v-1.3564"/>
     <path d="m170.72 111.99v-4.2389h-4.2389v4.2389"/>
     <path d="m166.48 111.99h2.7977v-2.7977h-1.3564v1.3564"/>
     <path d="m174.96 111.99h-4.2389"/>
     <path d="m174.96 111.99v-4.2389h-2.7977v2.7977"/>
     <path d="m172.16 110.55h1.3564v-1.3564"/>
     <path d="m180.98 111.99v-4.2389h-4.2389v4.2389"/>
     <path d="m176.74 111.99h2.7977v-2.7977h-1.3564v1.3564"/>
     <path d="m185.22 111.99h-4.2389"/>
     <path d="m182.42 110.55h1.3564"/>
    </g>
    <g transform="matrix(.69366 0 0 .69366 32.886 -29.997)" stroke-width=".72081">
     <path d="m109.21 111.99v-4.2389h-4.2389v4.2389"/>
     <path d="m104.97 111.99h2.7977v-2.7977h-1.3564v1.3565"/>
     <path d="m113.45 111.99h-4.2389"/>
     <path d="m113.45 111.99v-4.2389h-2.7977v2.7977"/>
     <path d="m110.65 110.55h1.3564v-1.3565"/>
     <path d="m119.47 111.99v-4.2389h-4.2389v4.2389"/>
     <path d="m115.23 111.99h2.7977v-2.7977h-1.3564v1.3564"/>
     <path d="m123.71 111.99h-4.2389"/>
     <path d="m123.71 111.99v-4.2389h-2.7977v2.7977"/>
     <path d="m120.91 110.55h1.3564v-1.3564"/>
     <path d="m129.64 111.99v-4.2389h-4.2389v4.2389"/>
     <path d="m125.4 111.99h2.7977v-2.7977h-1.3564v1.3564"/>
     <path d="m133.88 111.99h-4.2389"/>
     <path d="m133.88 111.99v-4.2389h-2.7977v2.7977"/>
     <path d="m131.08 110.55h1.3564v-1.3564"/>
     <path d="m139.9 111.99v-4.2389h-4.2389v4.2389"/>
     <path d="m135.66 111.99h2.7977v-2.7977h-1.3564v1.3564"/>
     <path d="m144.14 111.99h-4.2389"/>
     <path d="m144.14 111.99v-4.2389h-2.7977v2.7977"/>
     <path d="m141.34 110.55h1.3564v-1.3564"/>
     <path d="m150.29 111.99v-4.2389h-4.2389v4.2389"/>
     <path d="m146.05 111.99h2.7977v-2.7977h-1.3564v1.3565"/>
     <path d="m154.53 111.99h-4.2389"/>
     <path d="m154.53 111.99v-4.2389h-2.7977v2.7977"/>
     <path d="m151.73 110.55h1.3564v-1.3565"/>
     <path d="m160.55 111.99v-4.2389h-4.2389v4.2389"/>
     <path d="m156.31 111.99h2.7977v-2.7977h-1.3564v1.3564"/>
     <path d="m164.79 111.99h-4.2389"/>
     <path d="m164.79 111.99v-4.2389h-2.7977v2.7977"/>
     <path d="m161.99 110.55h1.3564v-1.3564"/>
     <path d="m170.72 111.99v-4.2389h-4.2389v4.2389"/>
     <path d="m166.48 111.99h2.7977v-2.7977h-1.3564v1.3564"/>
     <path d="m174.96 111.99h-4.2389"/>
     <path d="m174.96 111.99v-4.2389h-2.7977v2.7977"/>
     <path d="m172.16 110.55h1.3564v-1.3564"/>
     <path d="m180.98 111.99v-4.2389h-4.2389v4.2389"/>
     <path d="m176.74 111.99h2.7977v-2.7977h-1.3564v1.3564"/>
    </g>
   </g>
   <g transform="translate(-.028749 -5.6127)" stroke="#ff8095" stroke-linecap="square">
    <path d="m98.671 105.03v10.583" style="paint-order:normal"/>
    <path d="m98.671 115.61h-5.2917" style="paint-order:normal"/>
    <path d="m93.38 115.61v-2.6458" style="paint-order:normal"/>
    <path d="m101.32 115.61v-10.583" style="paint-order:normal"/>
    <path d="m101.32 105.03h5.2917l1e-5 10.583" style="paint-order:normal"/>
    <path d="m101.32 110.32h5.2917" style="paint-order:normal"/>
    <path d="m98.671 118.26h-5.2917v10.583h5.2917" style="paint-order:normal"/>
    <path d="m101.32 118.26v10.583h5.2917" style="paint-order:normal"/>
    <path d="m96.026 136.78-1e-6 5.2917" style="paint-order:normal"/>
    <path d="m93.38 131.49 2.6458 5.2917 2.6458-5.2917" style="paint-order:normal"/>
    <path d="m101.32 142.07v-10.583l5.2917 10.583v-10.583" style="paint-order:normal"/>
    <path d="m115.87 105.03h-5.2917v10.583h5.2917" style="paint-order:normal"/>
    <path d="m110.58 128.84v-10.583h5.2917v10.583" style="paint-order:normal"/>
    <path d="m110.58 123.55h5.2917" style="paint-order:normal"/>
    <path d="m110.58 142.07v-10.583h5.2917v10.583z" style="paint-order:normal"/>
   </g>
   <g stroke="#000" stroke-width=".26458px">
    <path d="m161.4 108.48v10.583"/>
    <path d="m161.4 119.06h-5.2917"/>
    <path d="m156.1 119.06v-2.6458"/>
    <path d="m162.72 119.06v-10.583"/>
    <path d="m162.72 108.48h5.2917v10.583"/>
    <path d="m162.72 113.77h5.2917"/>
    <path d="m161.4 120.39h-5.2917v10.583h5.2917"/>
    <path d="m162.72 120.39v10.583h5.2917"/>
    <path d="m158.75 137.58v5.2917"/>
    <path d="m156.1 132.29 2.6458 5.2917 2.6458-5.2917"/>
    <path d="m162.72 142.87v-10.583l5.2917 10.583v-10.583"/>
    <path d="m175.95 108.48h-5.2917v10.583h5.2917"/>
    <path d="m170.66 130.97v-10.583h5.2917v10.583"/>
    <path d="m170.66 125.68h5.2917"/>
    <path d="m170.66 142.87v-10.583h5.2917v10.583z"/>
   </g>
  </g>
  <g fill="#aeaeae" stroke-width=".26366" aria-label="WEB DEVELOPER">
   <path d="m93.678 138.95h0.35998l0.2278 0.66091 0.23061-0.66091h0.35717l-0.34311 0.9084 0.25311 0.63559 0.56529-1.5496h0.42186l-0.79871 1.9968h-0.33467l-0.35155-0.83809-0.34873 0.83809h-0.33467l-0.7959-1.9968h0.41623l0.5681 1.5496 0.24749-0.63559z"/>
   <path d="m97.342 140.6v0.3403h-1.3865v-1.9968h1.3612v0.34029h-0.97308v0.48092h0.8409v0.31498h-0.8409v0.52029z"/>
   <path d="m99.256 140.43q0 0.16874-0.08718 0.28405-0.08718 0.11249-0.23624 0.17155-0.14624 0.0591-0.32061 0.0591h-0.96464v-1.9968h1.0687q0.14062 0 0.24186 0.0759 0.10406 0.0731 0.15749 0.19124 0.05625 0.11531 0.05625 0.24187 0 0.14343-0.07312 0.2728t-0.21374 0.19124q0.17156 0.0506 0.26999 0.1828 0.10124 0.13218 0.10124 0.32624zm-0.39092-0.0731q0-0.0759-0.03094-0.13499-0.03094-0.0619-0.08437-0.0956-0.05062-0.0366-0.11812-0.0366h-0.59622v0.52591h0.57654q0.07031 0 0.12656-0.0337 0.05906-0.0366 0.09281-0.0956 0.03375-0.0591 0.03375-0.12937zm-0.82965-1.0771v0.50341h0.51748q0.06468 0 0.11812-0.0309t0.08437-0.0872q0.03375-0.0563 0.03375-0.13499 0-0.0759-0.03094-0.13218-0.02812-0.0563-0.07875-0.0872-0.04781-0.0309-0.10968-0.0309z"/>
   <path d="m100.23 140.94v-1.9968h0.72559q0.32623 0 0.5456 0.13499 0.21936 0.13218 0.32904 0.35998 0.10969 0.22499 0.10969 0.50061 0 0.30373-0.12093 0.52872-0.12094 0.22499-0.34311 0.34874-0.21937 0.12374-0.52029 0.12374zm1.319-1.0012q0-0.19406-0.0703-0.3403-0.0703-0.14906-0.20249-0.23061-0.13218-0.0844-0.32061-0.0844h-0.33749v1.3162h0.33749q0.19124 0 0.32342-0.0844 0.13218-0.0872 0.19968-0.23624 0.0703-0.15186 0.0703-0.34029z"/>
   <path d="m103.64 140.6v0.3403h-1.3865v-1.9968h1.3612v0.34029h-0.97308v0.48092h0.8409v0.31498h-0.8409v0.52029z"/>
   <path d="m104.15 138.95 0.53998 1.5356 0.53435-1.5356h0.40779l-0.75653 1.9968h-0.37404l-0.75934-1.9968z"/>
   <path d="m107.23 140.6v0.3403h-1.3865v-1.9968h1.3612v0.34029h-0.97308v0.48092h0.8409v0.31498h-0.8409v0.52029z"/>
   <path d="m107.53 140.94v-1.9968h0.38811v1.6565h1.0181v0.3403z"/>
   <path d="m109.9 140.96q-0.21937 0-0.39936-0.0844-0.17718-0.0844-0.30655-0.2278-0.12656-0.14624-0.19687-0.32624-0.0703-0.1828-0.0703-0.37404 0-0.19968 0.0731-0.37967 0.0759-0.18281 0.2053-0.32342 0.13218-0.14343 0.30936-0.22499 0.17999-0.0844 0.39373-0.0844 0.21655 0 0.39373 0.0872 0.18 0.0872 0.30655 0.23343 0.12656 0.14624 0.19687 0.32623 0.0703 0.17999 0.0703 0.37123 0 0.19687-0.0731 0.37967-0.0731 0.18-0.20531 0.32343-0.12937 0.14061-0.30936 0.22217-0.17718 0.0816-0.3881 0.0816zm-0.57935-1.0124q0 0.12937 0.0394 0.2503t0.11249 0.21655q0.0759 0.0928 0.18281 0.14906 0.10968 0.0534 0.24749 0.0534 0.14062 0 0.2503-0.0562 0.10968-0.0591 0.1828-0.15468 0.0731-0.0984 0.10969-0.21656 0.0394-0.12093 0.0394-0.24186 0-0.12937-0.0422-0.24749-0.0394-0.12093-0.1153-0.21374-0.0731-0.0956-0.18281-0.14906-0.10687-0.0562-0.24186-0.0562-0.14343 0-0.25312 0.0591-0.10687 0.0562-0.17999 0.15186-0.0731 0.0956-0.11249 0.21374-0.0366 0.11812-0.0366 0.24187z"/>
   <path d="m111.18 140.94v-1.9968h0.84653q0.1378 0 0.25311 0.0562 0.11531 0.0563 0.19968 0.15187 0.0872 0.0956 0.13499 0.21374 0.0478 0.11812 0.0478 0.24187 0 0.16874-0.0787 0.32061-0.0787 0.15186-0.21656 0.24749-0.1378 0.0956-0.32623 0.0956h-0.47248v0.66934zm0.38811-1.0096h0.44998q0.0703 0 0.12656-0.0394 0.0562-0.0394 0.09-0.1125 0.0337-0.0759 0.0337-0.17155 0-0.10406-0.0394-0.17718-0.0366-0.0731-0.0984-0.10968-0.0591-0.0366-0.12937-0.0366h-0.4331z"/>
   <path d="m114.31 140.6v0.3403h-1.3865v-1.9968h1.3612v0.34029h-0.97308v0.48092h0.8409v0.31498h-0.8409v0.52029z"/>
   <path d="m114.62 140.94v-1.9968h0.88308q0.13781 0 0.25312 0.0562 0.11811 0.0563 0.20249 0.15187 0.0872 0.0956 0.13218 0.21374 0.0478 0.11812 0.0478 0.24187 0 0.12655-0.045 0.24467-0.0422 0.11531-0.12374 0.20249-0.0816 0.0872-0.19125 0.135l0.45561 0.7509h-0.42748l-0.41061-0.66934h-0.3881v0.66934zm0.38811-1.0096h0.48654q0.0731 0 0.12936-0.0422 0.0563-0.045 0.09-0.11812 0.0337-0.0731 0.0337-0.16311 0-0.0956-0.0394-0.16593-0.0394-0.0731-0.10125-0.11531-0.0591-0.0422-0.12937-0.0422h-0.46966z"/>
  </g>
  <rect x="89.958" y="96.573" width="29.104" height="46.302" fill="none" stroke="#ff8095" stroke-linecap="square" style="paint-order:normal"/>
 </g>
</svg>
